<svg xmlns="http://www.w3.org/2000/svg" xmlns:xlink="http://www.w3.org/1999/xlink" width="200" zoomAndPan="magnify" viewBox="0 0 150 74.999997" height="100" preserveAspectRatio="xMidYMid meet" version="1.0"><defs><g><g id="id1"/></g><clipPath id="id2"><path d="M 18 14.699219 L 57 14.699219 L 57 59 L 18 59 Z M 18 14.699219 " clip-rule="nonzero"/></clipPath><clipPath id="id3"><path d="M 16.191406 15 L 49 15 L 49 32 L 16.191406 32 Z M 16.191406 15 " clip-rule="nonzero"/></clipPath><clipPath id="id4"><path d="M 19 15 L 57 15 L 57 60.449219 L 19 60.449219 Z M 19 15 " clip-rule="nonzero"/></clipPath><clipPath id="id5"><path d="M 22 15 L 59.691406 15 L 59.691406 60 L 22 60 Z M 22 15 " clip-rule="nonzero"/></clipPath><clipPath id="id6"><path d="M 16.191406 14.699219 L 59.691406 14.699219 L 59.691406 60.449219 L 16.191406 60.449219 Z M 16.191406 14.699219 " clip-rule="nonzero"/></clipPath></defs><g clip-path="url(#id2)"><path fill="rgb(97.24884%, 94.119263%, 88.238525%)" d="M 56.464844 42.160156 L 27.105469 42.160156 C 26.355469 41.871094 25.601562 41.582031 25.082031 41.007812 C 24.621094 39.796875 24.332031 38.351562 24.214844 37.027344 C 24.273438 36.96875 24.390625 36.910156 24.445312 36.851562 C 25.082031 36.101562 24.5625 34.257812 26.757812 34.082031 C 26.988281 34.027344 27.222656 33.96875 27.394531 33.910156 C 27.453125 33.910156 27.511719 33.910156 27.566406 33.910156 L 56.582031 33.910156 C 56.0625 34.777344 55.484375 36.046875 55.367188 37.660156 C 55.308594 39.566406 55.886719 41.121094 56.464844 42.160156 Z M 27.453125 35.871094 L 53.460938 35.871094 M 27.453125 37.949219 L 53.460938 37.949219 M 27.453125 40.027344 L 53.460938 40.027344 M 47.625 26.527344 C 47.679688 24.621094 46.523438 21.679688 46.523438 21.679688 C 46.523438 21.679688 21.152344 21.910156 18.378906 21.679688 C 18.78125 22.199219 19.824219 23.640625 19.9375 25.71875 C 20.113281 28.371094 18.726562 30.21875 18.378906 30.679688 C 23.925781 30.566406 29.589844 30.449219 35.371094 30.449219 C 41.496094 30.449219 46.757812 30.449219 46.757812 30.449219 C 46.757812 30.449219 47.566406 28.257812 47.625 26.527344 Z M 44.328125 24.796875 L 21.671875 24.796875 M 44.328125 27.160156 L 21.671875 27.160156 M 55.542969 52.660156 C 55.65625 50.066406 54.269531 45.96875 54.269531 45.96875 C 54.269531 45.96875 24.273438 46.316406 20.980469 45.96875 C 21.5 46.71875 22.714844 48.679688 22.828125 51.566406 C 23.003906 55.199219 21.441406 57.796875 20.980469 58.429688 C 27.566406 58.257812 34.273438 58.082031 41.035156 58.082031 C 48.316406 58.082031 54.441406 58.082031 54.441406 58.082031 C 54.441406 58.082031 55.484375 55.082031 55.542969 52.660156 Z M 40.457031 14.929688 C 40.226562 15.160156 39.300781 16.140625 39.242188 17.527344 C 39.183594 19.140625 40.109375 20.179688 40.285156 20.351562 C 41.902344 19.488281 43.519531 18.679688 45.195312 17.816406 Z M 51.667969 48.566406 L 24.910156 48.566406 M 43.867188 51.046875 C 37.566406 51.046875 31.210938 51.046875 24.910156 51.046875 M 51.667969 51.046875 C 51.035156 51.046875 50.398438 51.046875 49.761719 51.046875 M 43.867188 53.582031 C 37.566406 53.582031 31.210938 53.582031 24.910156 53.582031 M 51.667969 53.582031 C 51.035156 53.582031 50.398438 53.582031 49.761719 53.582031 M 43.867188 56.066406 C 37.566406 56.066406 31.210938 56.066406 24.910156 56.066406 M 51.667969 56.066406 C 51.035156 56.066406 50.398438 56.066406 49.761719 56.066406 " fill-opacity="1" fill-rule="nonzero"/></g><g clip-path="url(#id3)"><path fill="rgb(36.079407%, 78.42865%, 87.449646%)" d="M 17.742188 29.351562 C 17.742188 29.351562 44.964844 29.757812 45.773438 29.296875 C 46.351562 28.949219 47.046875 27.679688 46.988281 25.777344 C 46.929688 23.816406 46.234375 22.890625 45.660156 22.601562 C 45.082031 22.316406 17.742188 22.601562 17.742188 22.601562 C 17.164062 22.601562 16.644531 22.140625 16.644531 21.507812 C 16.644531 20.929688 17.105469 20.410156 17.742188 20.410156 L 45.3125 20.410156 C 45.714844 20.410156 47.335938 20.640625 48.203125 22.027344 C 48.953125 23.296875 49.011719 28.257812 48.316406 29.640625 C 47.335938 31.660156 45.484375 31.429688 45.3125 31.429688 L 17.742188 31.429688 C 17.164062 31.429688 16.644531 30.96875 16.644531 30.332031 C 16.644531 29.871094 17.164062 29.351562 17.742188 29.351562 Z M 26.238281 15.046875 L 23.984375 15.046875 L 23.984375 20.351562 L 26.238281 20.351562 Z M 26.238281 15.046875 " fill-opacity="1" fill-rule="nonzero"/></g><g clip-path="url(#id4)"><path fill="rgb(94.119263%, 37.249756%, 41.569519%)" d="M 56.175781 58.082031 C 55.078125 60.390625 52.941406 60.160156 52.710938 60.160156 L 21.039062 60.160156 C 20.34375 60.160156 19.824219 59.582031 19.824219 58.949219 C 19.824219 58.257812 20.402344 57.738281 21.039062 57.738281 C 21.441406 57.738281 21.847656 57.738281 22.25 57.738281 C 23.8125 57.738281 25.371094 57.796875 26.933594 57.796875 C 29.246094 57.796875 31.5 57.851562 33.808594 57.851562 C 36.296875 57.851562 38.839844 57.910156 41.324219 57.910156 C 43.578125 57.910156 45.773438 57.910156 48.027344 57.910156 C 48.894531 57.910156 49.703125 57.910156 50.570312 57.851562 C 51.496094 57.851562 52.824219 57.851562 53.34375 57.449219 C 54.675781 56.46875 54.617188 54.21875 54.617188 52.777344 C 54.617188 50.988281 54.5 46.832031 52.304688 46.777344 C 50.976562 46.777344 49.644531 46.71875 48.375 46.71875 C 46.292969 46.71875 44.214844 46.71875 42.132812 46.71875 C 39.707031 46.71875 37.335938 46.71875 34.90625 46.71875 C 32.652344 46.71875 30.34375 46.777344 28.089844 46.777344 C 26.414062 46.777344 24.679688 46.777344 23.003906 46.832031 C 22.308594 46.832031 21.671875 46.832031 20.980469 46.832031 C 20.285156 46.832031 19.765625 46.257812 19.765625 45.621094 C 19.765625 44.929688 20.34375 44.410156 20.980469 44.410156 C 21.210938 44.410156 21.5 44.410156 21.730469 44.410156 C 27.914062 44.410156 34.042969 44.410156 40.226562 44.410156 C 43.402344 44.410156 46.523438 44.410156 49.703125 44.410156 C 51.726562 44.410156 54.152344 44.066406 55.597656 45.851562 C 56.464844 47.007812 56.292969 48.390625 56.410156 49.71875 C 56.582031 51.390625 56.640625 53.066406 56.582031 54.738281 C 56.582031 54.738281 56.582031 54.738281 56.582031 54.796875 C 56.699219 55.832031 56.640625 57.101562 56.175781 58.082031 Z M 23.753906 15.046875 C 22.480469 15.101562 21.441406 16.199219 21.441406 17.46875 L 21.441406 17.871094 C 21.441406 19.199219 22.480469 20.238281 23.753906 20.296875 Z M 23.753906 15.046875 " fill-opacity="1" fill-rule="nonzero"/></g><g clip-path="url(#id5)"><path fill="rgb(100%, 85.488892%, 48.239136%)" d="M 59.183594 43.027344 C 59.183594 43.71875 58.605469 44.238281 57.96875 44.238281 L 26.296875 44.238281 C 26.066406 44.238281 23.925781 44.46875 22.828125 42.160156 C 22.019531 40.546875 22.078125 34.832031 23.003906 33.390625 C 23.984375 31.777344 25.890625 31.546875 26.296875 31.546875 L 57.96875 31.546875 C 58.664062 31.546875 59.183594 32.121094 59.183594 32.757812 C 59.183594 33.449219 58.605469 33.96875 57.96875 33.96875 C 57.96875 33.96875 26.585938 33.621094 25.949219 33.96875 C 25.3125 34.316406 24.445312 35.351562 24.445312 37.601562 C 24.390625 39.796875 25.140625 41.296875 25.835938 41.640625 C 26.816406 42.160156 57.96875 41.699219 57.96875 41.699219 C 58.664062 41.816406 59.183594 42.332031 59.183594 43.027344 Z M 39.183594 17.640625 C 39.183594 19.199219 40.167969 20.179688 40.339844 20.351562 L 26.355469 20.351562 L 26.355469 15.046875 L 40.339844 15.046875 C 40.167969 15.21875 39.183594 16.140625 39.183594 17.640625 Z M 49.125 51.332031 C 49.125 51.046875 48.835938 50.757812 48.546875 50.757812 L 44.847656 50.757812 C 44.558594 50.757812 44.269531 50.988281 44.269531 51.332031 L 44.269531 58.71875 C 44.269531 59.007812 44.503906 59.179688 44.792969 59.007812 L 46.234375 58.140625 C 46.523438 57.96875 46.929688 57.96875 47.21875 58.140625 L 48.664062 59.007812 C 48.953125 59.179688 49.183594 59.066406 49.183594 58.71875 L 49.183594 51.332031 Z M 49.125 51.332031 " fill-opacity="1" fill-rule="nonzero"/></g><g clip-path="url(#id6)"><path fill="rgb(47.059631%, 38.819885%, 24.708557%)" d="M 57.96875 41.527344 C 57.507812 41.527344 56.984375 41.527344 56.464844 41.527344 C 56.003906 40.546875 55.597656 39.21875 55.714844 37.660156 C 55.832031 36.277344 56.234375 35.179688 56.699219 34.316406 C 57.101562 34.316406 57.507812 34.316406 57.910156 34.316406 C 58.777344 34.316406 59.414062 33.621094 59.414062 32.816406 C 59.414062 32.007812 58.71875 31.316406 57.910156 31.316406 L 47.335938 31.316406 C 47.855469 30.96875 48.316406 30.507812 48.605469 29.871094 C 49.355469 28.371094 49.242188 23.238281 48.492188 21.96875 C 47.625 20.527344 45.945312 20.238281 45.371094 20.238281 L 41.324219 20.238281 L 45.371094 18.21875 C 45.484375 18.160156 45.542969 18.101562 45.542969 17.988281 C 45.542969 17.871094 45.484375 17.816406 45.425781 17.757812 C 45.371094 17.699219 45.3125 17.699219 45.253906 17.640625 C 45.082031 17.527344 44.90625 17.46875 44.734375 17.351562 C 44.503906 17.238281 44.269531 17.066406 44.039062 16.949219 C 43.75 16.777344 43.519531 16.601562 43.230469 16.429688 C 42.941406 16.257812 42.652344 16.082031 42.363281 15.910156 C 42.132812 15.738281 41.84375 15.621094 41.613281 15.449219 C 41.4375 15.332031 41.207031 15.21875 41.035156 15.101562 C 40.917969 15.046875 40.804688 14.988281 40.6875 14.929688 C 40.628906 14.871094 40.515625 14.871094 40.398438 14.871094 C 40.398438 14.871094 24.042969 14.699219 23.117188 14.988281 C 22.136719 15.277344 21.382812 16.199219 21.210938 17.238281 C 21.039062 18.332031 21.441406 19.601562 22.367188 20.238281 C 22.367188 20.238281 22.367188 20.238281 22.425781 20.296875 L 17.800781 20.296875 C 17.050781 20.296875 16.414062 20.929688 16.414062 21.679688 C 16.414062 22.429688 16.992188 22.890625 17.742188 22.890625 C 18.089844 22.890625 18.4375 22.890625 18.78125 22.890625 C 19.1875 23.640625 19.535156 24.621094 19.648438 25.777344 C 19.707031 27.101562 19.417969 28.257812 19.015625 29.066406 C 18.609375 29.066406 18.148438 29.066406 17.742188 29.066406 C 16.992188 29.066406 16.355469 29.699219 16.355469 30.449219 C 16.355469 31.199219 16.992188 31.832031 17.742188 31.832031 L 24.390625 31.832031 C 23.753906 32.121094 23.175781 32.582031 22.714844 33.332031 C 21.789062 34.777344 21.730469 40.601562 22.539062 42.332031 C 22.945312 43.140625 23.464844 43.71875 24.15625 44.121094 L 21.039062 44.121094 C 20.171875 44.121094 19.535156 44.816406 19.535156 45.621094 C 19.535156 46.429688 20.226562 47.121094 21.039062 47.121094 L 23.058594 47.121094 C 24.734375 47.121094 26.46875 47.066406 28.144531 47.066406 C 30.398438 47.066406 32.710938 47.007812 34.964844 47.007812 C 37.394531 47.007812 39.761719 47.007812 42.191406 47.007812 C 44.269531 47.007812 46.351562 47.007812 48.433594 47.007812 C 49.066406 47.007812 49.761719 47.007812 50.398438 47.066406 C 51.035156 47.066406 51.726562 47.121094 52.363281 47.121094 C 54.152344 47.121094 54.386719 50.699219 54.386719 52.832031 L 54.386719 53.007812 C 54.386719 54.449219 54.386719 56.410156 53.230469 57.21875 C 52.824219 57.507812 51.726562 57.507812 50.976562 57.507812 L 50.628906 57.507812 C 50.222656 57.507812 49.820312 57.507812 49.414062 57.507812 L 49.414062 56.351562 L 51.667969 56.351562 C 51.84375 56.351562 51.957031 56.238281 51.957031 56.066406 C 51.957031 55.890625 51.84375 55.777344 51.667969 55.777344 L 49.414062 55.777344 L 49.414062 53.871094 L 51.667969 53.871094 C 51.84375 53.871094 51.957031 53.757812 51.957031 53.582031 C 51.957031 53.410156 51.84375 53.296875 51.667969 53.296875 L 49.414062 53.296875 L 49.414062 51.390625 L 51.667969 51.390625 C 51.84375 51.390625 51.957031 51.277344 51.957031 51.101562 C 51.957031 50.929688 51.84375 50.816406 51.667969 50.816406 L 49.183594 50.816406 C 49.011719 50.640625 48.777344 50.527344 48.546875 50.527344 L 44.847656 50.527344 C 44.558594 50.527344 44.328125 50.640625 44.214844 50.816406 L 24.910156 50.816406 C 24.734375 50.816406 24.621094 50.929688 24.621094 51.101562 C 24.621094 51.277344 24.734375 51.390625 24.910156 51.390625 L 43.980469 51.390625 L 43.980469 53.296875 L 24.910156 53.296875 C 24.734375 53.296875 24.621094 53.410156 24.621094 53.582031 C 24.621094 53.757812 24.734375 53.871094 24.910156 53.871094 L 43.980469 53.871094 L 43.980469 55.777344 L 24.910156 55.777344 C 24.734375 55.777344 24.621094 55.890625 24.621094 56.066406 C 24.621094 56.238281 24.734375 56.351562 24.910156 56.351562 L 43.980469 56.351562 L 43.980469 57.621094 C 43.058594 57.621094 42.191406 57.621094 41.382812 57.621094 C 38.894531 57.621094 36.351562 57.621094 33.867188 57.566406 C 31.554688 57.566406 29.300781 57.507812 26.988281 57.507812 C 25.429688 57.507812 23.867188 57.449219 22.308594 57.449219 L 22.019531 57.449219 C 22.65625 56.121094 23.347656 54.101562 23.175781 51.679688 C 23.058594 49.777344 22.480469 48.160156 21.960938 47.066406 L 21.210938 47.066406 C 21.789062 48.101562 22.425781 49.777344 22.539062 51.738281 C 22.65625 54.21875 21.960938 56.238281 21.324219 57.449219 C 21.269531 57.449219 21.152344 57.449219 21.09375 57.449219 C 20.226562 57.449219 19.59375 58.140625 19.59375 58.949219 C 19.59375 59.757812 20.285156 60.449219 21.09375 60.449219 L 52.765625 60.449219 C 52.824219 60.449219 52.882812 60.449219 52.941406 60.449219 C 54.5 60.449219 55.773438 59.640625 56.464844 58.199219 C 56.929688 57.21875 56.984375 55.777344 57.042969 54.738281 C 57.101562 53.238281 57.042969 51.566406 56.871094 49.660156 C 56.871094 49.371094 56.8125 49.082031 56.8125 48.796875 C 56.753906 47.757812 56.699219 46.601562 55.945312 45.679688 C 55.542969 45.160156 55.078125 44.816406 54.617188 44.582031 L 58.027344 44.582031 C 58.894531 44.582031 59.527344 43.890625 59.527344 43.082031 C 59.527344 42.277344 58.777344 41.527344 57.96875 41.527344 Z M 55.136719 37.660156 C 55.019531 39.21875 55.367188 40.546875 55.832031 41.582031 C 43.578125 41.757812 26.816406 41.871094 25.949219 41.527344 C 25.429688 41.238281 24.679688 40.027344 24.734375 37.71875 C 24.792969 35.238281 25.777344 34.488281 26.066406 34.371094 C 26.875 34.140625 43.808594 34.257812 56.121094 34.371094 C 55.65625 35.179688 55.253906 36.332031 55.136719 37.660156 Z M 40.515625 15.390625 L 42.882812 16.832031 L 42.882812 18.796875 L 40.339844 20.007812 C 39.996094 19.601562 39.417969 18.738281 39.472656 17.582031 C 39.53125 16.832031 39.878906 16.082031 40.515625 15.390625 Z M 26.644531 15.332031 L 39.820312 15.332031 C 39.300781 16.027344 39.011719 16.777344 38.953125 17.527344 C 38.894531 18.621094 39.359375 19.488281 39.707031 20.007812 L 26.644531 20.007812 Z M 25.371094 15.332031 L 26.066406 15.332031 L 26.066406 20.066406 L 25.371094 20.066406 Z M 24.042969 15.332031 L 24.792969 15.332031 L 24.792969 20.066406 L 24.042969 20.066406 Z M 22.308594 19.371094 C 22.25 19.316406 22.191406 19.257812 22.136719 19.199219 C 22.078125 19.140625 22.078125 19.140625 22.019531 19.082031 C 21.960938 19.027344 21.960938 18.96875 21.902344 18.851562 C 21.902344 18.796875 21.902344 18.738281 21.902344 18.738281 C 21.847656 18.621094 21.847656 18.566406 21.789062 18.449219 C 21.789062 18.390625 21.789062 18.390625 21.730469 18.332031 C 21.730469 18.21875 21.671875 18.046875 21.671875 17.929688 L 21.671875 17.527344 C 21.671875 17.410156 21.671875 17.238281 21.730469 17.121094 C 21.730469 17.066406 21.730469 17.066406 21.789062 17.007812 C 21.789062 16.890625 21.847656 16.832031 21.847656 16.71875 C 21.902344 16.660156 21.902344 16.601562 21.960938 16.546875 C 22.019531 16.488281 22.019531 16.371094 22.078125 16.316406 C 22.078125 16.257812 22.136719 16.257812 22.191406 16.199219 C 22.25 16.140625 22.308594 16.082031 22.367188 16.027344 C 22.425781 15.96875 22.425781 15.96875 22.480469 15.910156 C 22.539062 15.851562 22.597656 15.796875 22.65625 15.796875 C 22.714844 15.738281 22.769531 15.738281 22.769531 15.679688 C 22.828125 15.621094 22.886719 15.621094 22.945312 15.566406 C 23.003906 15.507812 23.058594 15.507812 23.117188 15.507812 C 23.175781 15.507812 23.234375 15.449219 23.292969 15.449219 C 23.347656 15.449219 23.40625 15.390625 23.523438 15.390625 L 23.523438 20.007812 C 23.464844 20.007812 23.347656 19.949219 23.292969 19.949219 C 23.234375 19.949219 23.175781 19.890625 23.117188 19.890625 C 23.058594 19.890625 23.003906 19.832031 22.945312 19.832031 C 22.886719 19.777344 22.828125 19.777344 22.769531 19.71875 C 22.714844 19.660156 22.65625 19.660156 22.65625 19.601562 C 22.597656 19.546875 22.539062 19.488281 22.480469 19.488281 C 22.367188 19.429688 22.308594 19.429688 22.308594 19.371094 Z M 20.226562 25.71875 C 20.171875 24.566406 19.824219 23.640625 19.417969 22.832031 C 30.109375 22.71875 44.792969 22.660156 45.484375 22.832031 C 45.773438 22.949219 46.640625 23.582031 46.640625 25.777344 C 46.699219 27.738281 46.003906 28.832031 45.601562 29.066406 C 44.792969 29.351562 30.226562 29.238281 19.59375 29.121094 C 20.054688 28.199219 20.34375 27.046875 20.226562 25.71875 Z M 17.742188 31.257812 C 17.28125 31.257812 16.933594 30.910156 16.933594 30.449219 C 16.933594 30.046875 17.28125 29.640625 17.742188 29.640625 C 22.308594 29.699219 45.082031 30.046875 45.890625 29.582031 C 46.582031 29.238281 47.277344 27.851562 47.277344 25.777344 C 47.21875 23.410156 46.234375 22.601562 45.773438 22.371094 C 45.195312 22.082031 25.949219 22.257812 17.742188 22.316406 C 17.28125 22.316406 16.933594 21.96875 16.933594 21.507812 C 16.933594 21.046875 17.28125 20.699219 17.742188 20.699219 L 45.3125 20.699219 C 45.3125 20.699219 47.101562 20.757812 47.96875 22.199219 C 48.664062 23.351562 48.722656 28.199219 48.085938 29.527344 C 47.566406 30.621094 46.582031 31.199219 45.371094 31.199219 Z M 44.558594 51.332031 C 44.558594 51.160156 44.675781 51.046875 44.847656 51.046875 L 48.546875 51.046875 C 48.722656 51.046875 48.835938 51.160156 48.835938 51.332031 L 48.835938 58.777344 L 48.777344 58.777344 L 47.335938 57.851562 C 46.988281 57.621094 46.410156 57.621094 46.0625 57.851562 L 44.617188 58.71875 C 44.617188 58.71875 44.558594 58.71875 44.558594 58.777344 Z M 55.425781 45.96875 C 56.0625 46.777344 56.121094 47.757812 56.175781 48.796875 C 56.175781 49.082031 56.175781 49.429688 56.234375 49.71875 C 56.410156 51.621094 56.464844 53.238281 56.410156 54.679688 L 56.410156 54.738281 C 56.410156 55.71875 56.351562 57.046875 55.886719 57.910156 C 55.253906 59.238281 54.152344 59.871094 52.765625 59.816406 L 21.039062 59.816406 C 20.515625 59.816406 20.113281 59.410156 20.113281 58.890625 C 20.113281 58.371094 20.515625 57.96875 21.039062 57.96875 C 21.269531 57.96875 21.558594 57.96875 21.789062 57.96875 L 22.191406 57.96875 C 23.753906 57.96875 25.3125 58.027344 26.875 58.027344 C 29.1875 58.027344 31.441406 58.082031 33.753906 58.082031 C 36.296875 58.082031 38.78125 58.140625 41.324219 58.140625 C 42.132812 58.140625 43 58.140625 43.925781 58.140625 L 43.925781 58.71875 C 43.925781 58.949219 44.039062 59.179688 44.214844 59.296875 C 44.269531 59.351562 44.386719 59.351562 44.503906 59.351562 C 44.617188 59.351562 44.734375 59.296875 44.90625 59.238281 L 46.351562 58.371094 C 46.523438 58.257812 46.871094 58.257812 47.046875 58.371094 L 48.492188 59.238281 C 48.722656 59.351562 48.953125 59.410156 49.125 59.296875 C 49.300781 59.179688 49.414062 59.007812 49.414062 58.71875 L 49.414062 58.140625 C 49.820312 58.140625 50.222656 58.140625 50.628906 58.140625 L 50.976562 58.140625 C 51.957031 58.140625 53 58.082031 53.578125 57.679688 C 54.964844 56.640625 54.964844 54.449219 54.964844 53.007812 L 54.964844 52.832031 C 54.964844 48.738281 54.097656 46.601562 52.363281 46.546875 C 51.726562 46.546875 51.035156 46.546875 50.398438 46.488281 C 49.761719 46.488281 49.066406 46.429688 48.433594 46.429688 C 46.351562 46.429688 44.269531 46.429688 42.191406 46.429688 C 39.761719 46.429688 37.394531 46.429688 34.964844 46.429688 C 32.710938 46.429688 30.398438 46.488281 28.144531 46.488281 C 26.46875 46.488281 24.734375 46.488281 23.058594 46.546875 L 21.09375 46.546875 C 20.574219 46.546875 20.171875 46.140625 20.171875 45.621094 C 20.171875 45.101562 20.574219 44.699219 21.09375 44.699219 L 49.820312 44.699219 C 50.109375 44.699219 50.398438 44.699219 50.746094 44.699219 C 52.476562 44.582031 54.328125 44.527344 55.425781 45.96875 Z M 57.96875 43.949219 L 26.238281 43.949219 C 24.792969 44.007812 23.753906 43.316406 23.117188 42.046875 C 22.367188 40.488281 22.425781 34.890625 23.234375 33.566406 C 24.214844 31.949219 26.296875 31.832031 26.296875 31.832031 L 57.96875 31.832031 C 58.488281 31.832031 58.894531 32.238281 58.894531 32.757812 C 58.894531 33.277344 58.488281 33.679688 57.96875 33.679688 C 50.570312 33.621094 26.46875 33.390625 25.835938 33.738281 C 25.371094 34.027344 24.214844 34.890625 24.15625 37.601562 C 24.101562 39.96875 24.910156 41.527344 25.71875 41.929688 C 26.699219 42.449219 52.765625 42.101562 58.027344 41.988281 C 58.546875 41.988281 58.953125 42.390625 58.953125 42.910156 C 58.894531 43.546875 58.488281 43.949219 57.96875 43.949219 Z M 27.453125 35.582031 L 53.460938 35.582031 C 53.632812 35.582031 53.75 35.699219 53.75 35.871094 C 53.75 36.046875 53.632812 36.160156 53.460938 36.160156 L 27.453125 36.160156 C 27.277344 36.160156 27.164062 36.046875 27.164062 35.871094 C 27.164062 35.699219 27.277344 35.582031 27.453125 35.582031 Z M 53.75 37.949219 C 53.75 38.121094 53.632812 38.238281 53.460938 38.238281 L 27.453125 38.238281 C 27.277344 38.238281 27.164062 38.121094 27.164062 37.949219 C 27.164062 37.777344 27.277344 37.660156 27.453125 37.660156 L 53.460938 37.660156 C 53.632812 37.660156 53.75 37.832031 53.75 37.949219 Z M 53.75 40.027344 C 53.75 40.199219 53.632812 40.316406 53.460938 40.316406 L 27.453125 40.316406 C 27.277344 40.316406 27.164062 40.199219 27.164062 40.027344 C 27.164062 39.851562 27.277344 39.738281 27.453125 39.738281 L 53.460938 39.738281 C 53.632812 39.738281 53.75 39.851562 53.75 40.027344 Z M 21.382812 24.796875 C 21.382812 24.621094 21.5 24.507812 21.671875 24.507812 L 44.328125 24.507812 C 44.503906 24.507812 44.617188 24.621094 44.617188 24.796875 C 44.617188 24.96875 44.503906 25.082031 44.328125 25.082031 L 21.671875 25.082031 C 21.5 25.082031 21.382812 24.96875 21.382812 24.796875 Z M 44.328125 27.449219 L 21.671875 27.449219 C 21.5 27.449219 21.382812 27.332031 21.382812 27.160156 C 21.382812 26.988281 21.5 26.871094 21.671875 26.871094 L 44.328125 26.871094 C 44.503906 26.871094 44.617188 26.988281 44.617188 27.160156 C 44.617188 27.332031 44.503906 27.449219 44.328125 27.449219 Z M 24.621094 48.566406 C 24.621094 48.390625 24.734375 48.277344 24.910156 48.277344 L 51.667969 48.277344 C 51.84375 48.277344 51.957031 48.390625 51.957031 48.566406 C 51.957031 48.738281 51.84375 48.851562 51.667969 48.851562 L 24.910156 48.851562 C 24.734375 48.851562 24.621094 48.738281 24.621094 48.566406 Z M 24.621094 48.566406 " fill-opacity="1" fill-rule="nonzero"/></g><g fill="rgb(100%, 100%, 100%)" fill-opacity="1"><g transform="translate(63.459017, 40.926876)"><g><path d="M 5 -3.921875 C 5.351562 -3.773438 5.640625 -3.554688 5.859375 -3.265625 C 6.085938 -2.984375 6.203125 -2.613281 6.203125 -2.15625 C 6.203125 -1.351562 5.972656 -0.789062 5.515625 -0.46875 C 5.054688 -0.15625 4.515625 0 3.890625 0 L 1.375 0 C 1.195312 0 1.046875 -0.0546875 0.921875 -0.171875 C 0.804688 -0.296875 0.75 -0.441406 0.75 -0.609375 L 0.75 -6.453125 C 0.75 -6.628906 0.804688 -6.773438 0.921875 -6.890625 C 1.046875 -7.003906 1.195312 -7.0625 1.375 -7.0625 L 3.921875 -7.0625 C 5.191406 -7.0625 5.828125 -6.460938 5.828125 -5.265625 C 5.828125 -4.960938 5.753906 -4.695312 5.609375 -4.46875 C 5.472656 -4.238281 5.269531 -4.054688 5 -3.921875 Z M 4.515625 -5.046875 C 4.515625 -5.316406 4.445312 -5.519531 4.3125 -5.65625 C 4.175781 -5.800781 3.984375 -5.875 3.734375 -5.875 L 2.0625 -5.875 L 2.0625 -4.296875 L 3.765625 -4.296875 C 3.960938 -4.296875 4.132812 -4.363281 4.28125 -4.5 C 4.4375 -4.632812 4.515625 -4.816406 4.515625 -5.046875 Z M 3.890625 -1.15625 C 4.203125 -1.15625 4.445312 -1.238281 4.625 -1.40625 C 4.800781 -1.582031 4.890625 -1.832031 4.890625 -2.15625 C 4.890625 -2.550781 4.785156 -2.804688 4.578125 -2.921875 C 4.367188 -3.046875 4.113281 -3.109375 3.8125 -3.109375 L 2.0625 -3.109375 L 2.0625 -1.15625 Z M 3.890625 -1.15625 "/></g></g></g><g fill="rgb(100%, 100%, 100%)" fill-opacity="1"><g transform="translate(72.084668, 40.926876)"><g><path d="M 7.25 -3.53125 C 7.25 -2.863281 7.101562 -2.253906 6.8125 -1.703125 C 6.519531 -1.148438 6.109375 -0.710938 5.578125 -0.390625 C 5.054688 -0.0664062 4.472656 0.09375 3.828125 0.09375 C 3.171875 0.09375 2.582031 -0.0664062 2.0625 -0.390625 C 1.539062 -0.710938 1.132812 -1.148438 0.84375 -1.703125 C 0.550781 -2.253906 0.40625 -2.863281 0.40625 -3.53125 C 0.40625 -4.195312 0.550781 -4.804688 0.84375 -5.359375 C 1.132812 -5.921875 1.539062 -6.363281 2.0625 -6.6875 C 2.582031 -7.007812 3.171875 -7.171875 3.828125 -7.171875 C 4.472656 -7.171875 5.054688 -7.007812 5.578125 -6.6875 C 6.109375 -6.363281 6.519531 -5.921875 6.8125 -5.359375 C 7.101562 -4.804688 7.25 -4.195312 7.25 -3.53125 Z M 5.9375 -3.53125 C 5.9375 -3.976562 5.847656 -4.382812 5.671875 -4.75 C 5.492188 -5.125 5.242188 -5.414062 4.921875 -5.625 C 4.597656 -5.84375 4.234375 -5.953125 3.828125 -5.953125 C 3.410156 -5.953125 3.039062 -5.84375 2.71875 -5.625 C 2.40625 -5.414062 2.160156 -5.125 1.984375 -4.75 C 1.804688 -4.382812 1.71875 -3.976562 1.71875 -3.53125 C 1.71875 -3.082031 1.804688 -2.671875 1.984375 -2.296875 C 2.160156 -1.929688 2.40625 -1.640625 2.71875 -1.421875 C 3.039062 -1.210938 3.410156 -1.109375 3.828125 -1.109375 C 4.234375 -1.109375 4.597656 -1.210938 4.921875 -1.421875 C 5.242188 -1.640625 5.492188 -1.929688 5.671875 -2.296875 C 5.847656 -2.671875 5.9375 -3.082031 5.9375 -3.53125 Z M 5.9375 -3.53125 "/></g></g></g><g fill="rgb(100%, 100%, 100%)" fill-opacity="1"><g transform="translate(81.759248, 40.926876)"><g><path d="M 7.25 -3.53125 C 7.25 -2.863281 7.101562 -2.253906 6.8125 -1.703125 C 6.519531 -1.148438 6.109375 -0.710938 5.578125 -0.390625 C 5.054688 -0.0664062 4.472656 0.09375 3.828125 0.09375 C 3.171875 0.09375 2.582031 -0.0664062 2.0625 -0.390625 C 1.539062 -0.710938 1.132812 -1.148438 0.84375 -1.703125 C 0.550781 -2.253906 0.40625 -2.863281 0.40625 -3.53125 C 0.40625 -4.195312 0.550781 -4.804688 0.84375 -5.359375 C 1.132812 -5.921875 1.539062 -6.363281 2.0625 -6.6875 C 2.582031 -7.007812 3.171875 -7.171875 3.828125 -7.171875 C 4.472656 -7.171875 5.054688 -7.007812 5.578125 -6.6875 C 6.109375 -6.363281 6.519531 -5.921875 6.8125 -5.359375 C 7.101562 -4.804688 7.25 -4.195312 7.25 -3.53125 Z M 5.9375 -3.53125 C 5.9375 -3.976562 5.847656 -4.382812 5.671875 -4.75 C 5.492188 -5.125 5.242188 -5.414062 4.921875 -5.625 C 4.597656 -5.84375 4.234375 -5.953125 3.828125 -5.953125 C 3.410156 -5.953125 3.039062 -5.84375 2.71875 -5.625 C 2.40625 -5.414062 2.160156 -5.125 1.984375 -4.75 C 1.804688 -4.382812 1.71875 -3.976562 1.71875 -3.53125 C 1.71875 -3.082031 1.804688 -2.671875 1.984375 -2.296875 C 2.160156 -1.929688 2.40625 -1.640625 2.71875 -1.421875 C 3.039062 -1.210938 3.410156 -1.109375 3.828125 -1.109375 C 4.234375 -1.109375 4.597656 -1.210938 4.921875 -1.421875 C 5.242188 -1.640625 5.492188 -1.929688 5.671875 -2.296875 C 5.847656 -2.671875 5.9375 -3.082031 5.9375 -3.53125 Z M 5.9375 -3.53125 "/></g></g></g><g fill="rgb(100%, 100%, 100%)" fill-opacity="1"><g transform="translate(91.433828, 40.926876)"><g><path d="M 6.171875 -1.046875 C 6.210938 -0.992188 6.242188 -0.925781 6.265625 -0.84375 C 6.296875 -0.769531 6.3125 -0.703125 6.3125 -0.640625 C 6.3125 -0.453125 6.238281 -0.296875 6.09375 -0.171875 C 5.957031 -0.0546875 5.800781 0 5.625 0 C 5.53125 0 5.441406 -0.0195312 5.359375 -0.0625 C 5.285156 -0.101562 5.222656 -0.160156 5.171875 -0.234375 L 2.984375 -3.125 L 2.015625 -2.203125 L 2.015625 -0.609375 C 2.015625 -0.429688 1.957031 -0.285156 1.84375 -0.171875 C 1.726562 -0.0546875 1.578125 0 1.390625 0 C 1.203125 0 1.046875 -0.0546875 0.921875 -0.171875 C 0.804688 -0.296875 0.75 -0.441406 0.75 -0.609375 L 0.75 -6.453125 C 0.75 -6.628906 0.8125 -6.773438 0.9375 -6.890625 C 1.0625 -7.003906 1.21875 -7.0625 1.40625 -7.0625 C 1.582031 -7.0625 1.726562 -7.003906 1.84375 -6.890625 C 1.957031 -6.773438 2.015625 -6.628906 2.015625 -6.453125 L 2.015625 -3.703125 L 5.25 -6.890625 C 5.40625 -7.035156 5.570312 -7.109375 5.75 -7.109375 C 5.894531 -7.109375 6.019531 -7.046875 6.125 -6.921875 C 6.238281 -6.796875 6.296875 -6.660156 6.296875 -6.515625 C 6.296875 -6.378906 6.234375 -6.25 6.109375 -6.125 L 3.921875 -4.03125 Z M 6.171875 -1.046875 "/></g></g></g><g fill="rgb(100%, 100%, 100%)" fill-opacity="1"><g transform="translate(100.059478, 40.926876)"><g><path d="M 5 -3.921875 C 5.351562 -3.773438 5.640625 -3.554688 5.859375 -3.265625 C 6.085938 -2.984375 6.203125 -2.613281 6.203125 -2.15625 C 6.203125 -1.351562 5.972656 -0.789062 5.515625 -0.46875 C 5.054688 -0.15625 4.515625 0 3.890625 0 L 1.375 0 C 1.195312 0 1.046875 -0.0546875 0.921875 -0.171875 C 0.804688 -0.296875 0.75 -0.441406 0.75 -0.609375 L 0.75 -6.453125 C 0.75 -6.628906 0.804688 -6.773438 0.921875 -6.890625 C 1.046875 -7.003906 1.195312 -7.0625 1.375 -7.0625 L 3.921875 -7.0625 C 5.191406 -7.0625 5.828125 -6.460938 5.828125 -5.265625 C 5.828125 -4.960938 5.753906 -4.695312 5.609375 -4.46875 C 5.472656 -4.238281 5.269531 -4.054688 5 -3.921875 Z M 4.515625 -5.046875 C 4.515625 -5.316406 4.445312 -5.519531 4.3125 -5.65625 C 4.175781 -5.800781 3.984375 -5.875 3.734375 -5.875 L 2.0625 -5.875 L 2.0625 -4.296875 L 3.765625 -4.296875 C 3.960938 -4.296875 4.132812 -4.363281 4.28125 -4.5 C 4.4375 -4.632812 4.515625 -4.816406 4.515625 -5.046875 Z M 3.890625 -1.15625 C 4.203125 -1.15625 4.445312 -1.238281 4.625 -1.40625 C 4.800781 -1.582031 4.890625 -1.832031 4.890625 -2.15625 C 4.890625 -2.550781 4.785156 -2.804688 4.578125 -2.921875 C 4.367188 -3.046875 4.113281 -3.109375 3.8125 -3.109375 L 2.0625 -3.109375 L 2.0625 -1.15625 Z M 3.890625 -1.15625 "/></g></g></g><g fill="rgb(100%, 100%, 100%)" fill-opacity="1"><g transform="translate(108.685129, 40.926876)"><g><path d="M 5.78125 -7.078125 C 5.945312 -7.078125 6.082031 -7.019531 6.1875 -6.90625 C 6.300781 -6.789062 6.359375 -6.640625 6.359375 -6.453125 L 6.359375 -2.8125 C 6.359375 -2.25 6.238281 -1.75 6 -1.3125 C 5.769531 -0.882812 5.441406 -0.550781 5.015625 -0.3125 C 4.585938 -0.0703125 4.101562 0.046875 3.5625 0.046875 C 3.019531 0.046875 2.535156 -0.0703125 2.109375 -0.3125 C 1.679688 -0.550781 1.347656 -0.882812 1.109375 -1.3125 C 0.867188 -1.75 0.75 -2.25 0.75 -2.8125 L 0.75 -6.453125 C 0.75 -6.628906 0.8125 -6.773438 0.9375 -6.890625 C 1.0625 -7.015625 1.21875 -7.078125 1.40625 -7.078125 C 1.5625 -7.078125 1.703125 -7.015625 1.828125 -6.890625 C 1.953125 -6.773438 2.015625 -6.628906 2.015625 -6.453125 L 2.015625 -2.8125 C 2.015625 -2.488281 2.082031 -2.195312 2.21875 -1.9375 C 2.363281 -1.6875 2.554688 -1.492188 2.796875 -1.359375 C 3.035156 -1.222656 3.289062 -1.15625 3.5625 -1.15625 C 3.851562 -1.15625 4.125 -1.222656 4.375 -1.359375 C 4.625 -1.492188 4.820312 -1.6875 4.96875 -1.9375 C 5.125 -2.195312 5.203125 -2.488281 5.203125 -2.8125 L 5.203125 -6.453125 C 5.203125 -6.640625 5.253906 -6.789062 5.359375 -6.90625 C 5.460938 -7.019531 5.601562 -7.078125 5.78125 -7.078125 Z M 5.78125 -7.078125 "/></g></g></g><g fill="rgb(100%, 100%, 100%)" fill-opacity="1"><g transform="translate(117.815076, 40.926876)"><g><path d="M 5.859375 -6.46875 C 5.859375 -6.332031 5.820312 -6.207031 5.75 -6.09375 L 3.640625 -3.078125 L 3.640625 -0.609375 C 3.640625 -0.441406 3.582031 -0.296875 3.46875 -0.171875 C 3.351562 -0.0546875 3.21875 0 3.0625 0 C 2.894531 0 2.75 -0.0546875 2.625 -0.171875 C 2.507812 -0.296875 2.453125 -0.441406 2.453125 -0.609375 L 2.453125 -3.21875 L 0.359375 -6 C 0.234375 -6.164062 0.171875 -6.328125 0.171875 -6.484375 C 0.171875 -6.660156 0.238281 -6.804688 0.375 -6.921875 C 0.507812 -7.035156 0.65625 -7.09375 0.8125 -7.09375 C 1 -7.09375 1.164062 -7 1.3125 -6.8125 L 3.09375 -4.359375 L 4.75 -6.796875 C 4.894531 -6.992188 5.066406 -7.09375 5.265625 -7.09375 C 5.421875 -7.09375 5.554688 -7.03125 5.671875 -6.90625 C 5.796875 -6.789062 5.859375 -6.644531 5.859375 -6.46875 Z M 5.859375 -6.46875 "/></g></g></g></svg>